HIERARCHY
ROOT Root
{
  OFFSET 0.0 0.0 0.0
  CHANNELS 6 Xposition Yposition Zposition Zrotation Yrotation Xrotation
  JOINT Hips
  {
    OFFSET 0.0 100.0 0.0
    CHANNELS 6 Xposition Yposition Zposition Zrotation Yrotation Xrotation
    JOINT Spine1
    {
      OFFSET -0.013727 5.003763 -0.053727
      CHANNELS 3 Zrotation Yrotation Xrotation
      JOINT Spine2
      {
        OFFSET -0.0 7.125301 -0.029825
        CHANNELS 3 Zrotation Yrotation Xrotation
        JOINT Chest
        {
          OFFSET -1e-06 7.550063 -0.815971
          CHANNELS 3 Zrotation Yrotation Xrotation
          JOINT Neck1
          {
            OFFSET -0.181677 26.311295 -0.553348
            CHANNELS 3 Zrotation Yrotation Xrotation
            JOINT Neck2
            {
              OFFSET -3e-06 7.709397 2.302585
              CHANNELS 3 Zrotation Yrotation Xrotation
              JOINT Head
              {
                OFFSET -5e-06 6.128916 1.953709
                CHANNELS 3 Zrotation Yrotation Xrotation
                JOINT HeadEnd
                {
                  OFFSET 0.003598 16.065403 -1.835379
                  CHANNELS 3 Zrotation Yrotation Xrotation
                }
                JOINT Jaw
                {
                  OFFSET 0.002637 0.475592 3.094941
                  CHANNELS 3 Zrotation Yrotation Xrotation
                }
                JOINT LeftEye
                {
                  OFFSET 3.206381 5.380205 7.586883
                  CHANNELS 3 Zrotation Yrotation Xrotation
                }
                JOINT RightEye
                {
                  OFFSET -3.22244 5.361869 7.558234
                  CHANNELS 3 Zrotation Yrotation Xrotation
                }
              }
            }
          }
          JOINT LeftShoulder
          {
            OFFSET 1.621652 23.237164 5.113413
            CHANNELS 3 Zrotation Yrotation Xrotation
            JOINT LeftArm
            {
              OFFSET 14.919846 2e-06 -5.502326
              CHANNELS 3 Zrotation Yrotation Xrotation
              JOINT LeftForeArm
              {
                OFFSET 28.739307 0.0 -0.002588
                CHANNELS 3 Zrotation Yrotation Xrotation
                JOINT LeftHand
                {
                  OFFSET 27.093981 -1e-06 0.002609
                  CHANNELS 3 Zrotation Yrotation Xrotation
                  JOINT LeftHandThumb1
                  {
                    OFFSET 2.276482 -1.392045 3.191413
                    CHANNELS 3 Zrotation Yrotation Xrotation
                    JOINT LeftHandThumb2
                    {
                      OFFSET 4.012836 -1.828127 1.641654
                      CHANNELS 3 Zrotation Yrotation Xrotation
                      JOINT LeftHandThumb3
                      {
                        OFFSET 2.798515 0.0 -3e-06
                        CHANNELS 3 Zrotation Yrotation Xrotation
                        JOINT LeftHandThumbEnd
                        {
                          OFFSET 3.180793 -4e-06 4e-06
                          CHANNELS 3 Zrotation Yrotation Xrotation
                        }
                      }
                    }
                  }
                  JOINT LeftHandIndex1
                  {
                    OFFSET 3.247555 -0.531998 2.296169
                    CHANNELS 3 Zrotation Yrotation Xrotation
                    JOINT LeftHandIndex2
                    {
                      OFFSET 6.364578 0.01206 0.1786
                      CHANNELS 3 Zrotation Yrotation Xrotation
                      JOINT LeftHandIndex3
                      {
                        OFFSET 3.662364 0.0 0.0
                        CHANNELS 3 Zrotation Yrotation Xrotation
                        JOINT LeftHandIndex4
                        {
                          OFFSET 2.329242 4e-06 4e-06
                          CHANNELS 3 Zrotation Yrotation Xrotation
                          JOINT LeftHandIndexEnd
                          {
                            OFFSET 2.759615 -0.180537 -0.113024
                            CHANNELS 3 Zrotation Yrotation Xrotation
                          }
                        }
                      }
                    }
                  }
                  JOINT LeftHandMiddle1
                  {
                    OFFSET 3.163495 0.240981 1.000332
                    CHANNELS 3 Zrotation Yrotation Xrotation
                    JOINT LeftHandMiddle2
                    {
                      OFFSET 6.19078 -0.259278 -1.002548
                      CHANNELS 3 Zrotation Yrotation Xrotation
                      JOINT LeftHandMiddle3
                      {
                        OFFSET 4.35652 -4e-06 -1e-06
                        CHANNELS 3 Zrotation Yrotation Xrotation
                        JOINT LeftHandMiddle4
                        {
                          OFFSET 2.996877 -8e-06 0.0
                          CHANNELS 3 Zrotation Yrotation Xrotation
                          JOINT LeftHandMiddleEnd
                          {
                            OFFSET 2.304287 -0.294569 -0.031741
                            CHANNELS 3 Zrotation Yrotation Xrotation
                          }
                        }
                      }
                    }
                  }
                  JOINT LeftHandRing1
                  {
                    OFFSET 2.882643 -0.053652 -0.322543
                    CHANNELS 3 Zrotation Yrotation Xrotation
                    JOINT LeftHandRing2
                    {
                      OFFSET 5.854541 -0.486202 -1.373841
                      CHANNELS 3 Zrotation Yrotation Xrotation
                      JOINT LeftHandRing3
                      {
                        OFFSET 4.350578 0.0 3e-06
                        CHANNELS 3 Zrotation Yrotation Xrotation
                        JOINT LeftHandRing4
                        {
                          OFFSET 2.651321 7e-06 2e-06
                          CHANNELS 3 Zrotation Yrotation Xrotation
                          JOINT LeftHandRingEnd
                          {
                            OFFSET 1.936105 0.077687 -7.1e-05
                            CHANNELS 3 Zrotation Yrotation Xrotation
                          }
                        }
                      }
                    }
                  }
                  JOINT LeftHandPinky1
                  {
                    OFFSET 2.8655 -0.310005 -1.600378
                    CHANNELS 3 Zrotation Yrotation Xrotation
                    JOINT LeftHandPinky2
                    {
                      OFFSET 5.087849 -1.331141 -1.77123
                      CHANNELS 3 Zrotation Yrotation Xrotation
                      JOINT LeftHandPinky3
                      {
                        OFFSET 3.070974 4e-06 0.0
                        CHANNELS 3 Zrotation Yrotation Xrotation
                        JOINT LeftHandPinky4
                        {
                          OFFSET 1.549672 0.0 1e-06
                          CHANNELS 3 Zrotation Yrotation Xrotation
                          JOINT LeftHandPinkyEnd
                          {
                            OFFSET 1.944893 -0.157802 0.057219
                            CHANNELS 3 Zrotation Yrotation Xrotation
                          }
                        }
                      }
                    }
                  }
                }
              }
            }
          }
          JOINT RightShoulder
          {
            OFFSET -1.380118 23.180309 5.214158
            CHANNELS 3 Zrotation Yrotation Xrotation
            JOINT RightArm
            {
              OFFSET -15.037196 1.2e-05 -5.545604
              CHANNELS 3 Zrotation Yrotation Xrotation
              JOINT RightForeArm
              {
                OFFSET -28.736639 2e-06 -0.002597
                CHANNELS 3 Zrotation Yrotation Xrotation
                JOINT RightHand
                {
                  OFFSET -27.133619 -0.0 0.002613
                  CHANNELS 3 Zrotation Yrotation Xrotation
                  JOINT RightHandThumb1
                  {
                    OFFSET -2.274032 -1.383988 3.163127
                    CHANNELS 3 Zrotation Yrotation Xrotation
                    JOINT RightHandThumb2
                    {
                      OFFSET -4.011429 -1.827466 1.640914
                      CHANNELS 3 Zrotation Yrotation Xrotation
                      JOINT RightHandThumb3
                      {
                        OFFSET -2.794935 -4e-06 -3e-06
                        CHANNELS 3 Zrotation Yrotation Xrotation
                        JOINT RightHandThumbEnd
                        {
                          OFFSET -3.183852 4e-06 1e-06
                          CHANNELS 3 Zrotation Yrotation Xrotation
                        }
                      }
                    }
                  }
                  JOINT RightHandIndex1
                  {
                    OFFSET -3.253266 -0.520057 2.282866
                    CHANNELS 3 Zrotation Yrotation Xrotation
                    JOINT RightHandIndex2
                    {
                      OFFSET -6.341917 0.012471 0.178266
                      CHANNELS 3 Zrotation Yrotation Xrotation
                      JOINT RightHandIndex3
                      {
                        OFFSET -3.654871 -8e-06 -0.0
                        CHANNELS 3 Zrotation Yrotation Xrotation
                        JOINT RightHandIndex4
                        {
                          OFFSET -2.327586 0.0 1e-06
                          CHANNELS 3 Zrotation Yrotation Xrotation
                          JOINT RightHandIndexEnd
                          {
                            OFFSET -2.76179 -0.180656 -0.113078
                            CHANNELS 3 Zrotation Yrotation Xrotation
                          }
                        }
                      }
                    }
                  }
                  JOINT RightHandMiddle1
                  {
                    OFFSET -3.168106 0.246593 1.00103
                    CHANNELS 3 Zrotation Yrotation Xrotation
                    JOINT RightHandMiddle2
                    {
                      OFFSET -6.180828 -0.258836 -1.000895
                      CHANNELS 3 Zrotation Yrotation Xrotation
                      JOINT RightHandMiddle3
                      {
                        OFFSET -4.348901 0.0 -0.0
                        CHANNELS 3 Zrotation Yrotation Xrotation
                        JOINT RightHandMiddle4
                        {
                          OFFSET -3.00024 -4e-06 -2e-06
                          CHANNELS 3 Zrotation Yrotation Xrotation
                          JOINT RightHandMiddleEnd
                          {
                            OFFSET -2.30252 -0.29437 -0.031706
                            CHANNELS 3 Zrotation Yrotation Xrotation
                          }
                        }
                      }
                    }
                  }
                  JOINT RightHandRing1
                  {
                    OFFSET -2.88569 -0.067952 -0.308858
                    CHANNELS 3 Zrotation Yrotation Xrotation
                    JOINT RightHandRing2
                    {
                      OFFSET -5.854198 -0.48613 -1.373731
                      CHANNELS 3 Zrotation Yrotation Xrotation
                      JOINT RightHandRing3
                      {
                        OFFSET -4.33881 -4e-06 -0.0
                        CHANNELS 3 Zrotation Yrotation Xrotation
                        JOINT RightHandRing4
                        {
                          OFFSET -2.654903 -4e-06 4e-06
                          CHANNELS 3 Zrotation Yrotation Xrotation
                          JOINT RightHandRingEnd
                          {
                            OFFSET -1.933568 0.077527 -5.2e-05
                            CHANNELS 3 Zrotation Yrotation Xrotation
                          }
                        }
                      }
                    }
                  }
                  JOINT RightHandPinky1
                  {
                    OFFSET -2.866425 -0.342796 -1.584145
                    CHANNELS 3 Zrotation Yrotation Xrotation
                    JOINT RightHandPinky2
                    {
                      OFFSET -5.091371 -1.332055 -1.772385
                      CHANNELS 3 Zrotation Yrotation Xrotation
                      JOINT RightHandPinky3
                      {
                        OFFSET -3.062664 -4e-06 1e-06
                        CHANNELS 3 Zrotation Yrotation Xrotation
                        JOINT RightHandPinky4
                        {
                          OFFSET -1.546529 4e-06 -2e-06
                          CHANNELS 3 Zrotation Yrotation Xrotation
                          JOINT RightHandPinkyEnd
                          {
                            OFFSET -1.945119 -0.157718 0.057211
                            CHANNELS 3 Zrotation Yrotation Xrotation
                          }
                        }
                      }
                    }
                  }
                }
              }
            }
          }
        }
      }
    }
    JOINT LeftLeg
    {
      OFFSET 10.043214 -8.434526 2.595655
      CHANNELS 3 Zrotation Yrotation Xrotation
      JOINT LeftShin
      {
        OFFSET -1e-06 -43.221752 -0.802913
        CHANNELS 3 Zrotation Yrotation Xrotation
        JOINT LeftFoot
        {
          OFFSET 1e-06 -42.155094 -3.481523
          CHANNELS 3 Zrotation Yrotation Xrotation
          JOINT LeftToeBase
          {
            OFFSET 0.0 -5.059472 13.231529
            CHANNELS 3 Zrotation Yrotation Xrotation
            JOINT LeftToeEnd
            {
              OFFSET -0.009607 -1.647619 6.513017
              CHANNELS 3 Zrotation Yrotation Xrotation
            }
          }
        }
      }
    }
    JOINT RightLeg
    {
      OFFSET -10.047278 -8.29526 2.620317
      CHANNELS 3 Zrotation Yrotation Xrotation
      JOINT RightShin
      {
        OFFSET 1e-06 -43.362206 -0.805556
        CHANNELS 3 Zrotation Yrotation Xrotation
        JOINT RightFoot
        {
          OFFSET 2e-06 -42.117393 -3.478398
          CHANNELS 3 Zrotation Yrotation Xrotation
          JOINT RightToeBase
          {
            OFFSET -0.0 -5.079609 13.284196
            CHANNELS 3 Zrotation Yrotation Xrotation
            JOINT RightToeEnd
            {
              OFFSET 0.009532 -1.634378 6.460591
              CHANNELS 3 Zrotation Yrotation Xrotation
            }
          }
        }
      }
    }
  }
}
MOTION
Frames: 4
Frame Time: 0.03333333333333333
0.0 0.0 0.0 0.0 -0.0 0.0 -0.473386 91.514778 834.047791 4.182561 11.777192 -19.864632 -2.758394 0.370524 4.84791 -0.978858 -1.100454 -2.765858 -2.789887 -2.265984 17.039854 3.442688 0.428284 15.643623 -0.128818 -0.247784 -3.759979 1.195041 -1.245503 -8.388861 7.7e-05 -2.2e-05 6e-06 0.001831 0.025488 0.034874 0.705458 -3.667547 -10.470774 -0.700781 3.722868 -10.47939 29.59938 -18.793526 0.607807 -69.171799 -72.46212 -6.185266 0.263426 -48.599995 0.788773 27.767984 3.719165 -29.755674 -5.882102 9.861279 0.70259 -10.936858 -0.360574 7.156195 0.0 8.774814 0.0 -15.173192 18.183485 6.533938 -1.844031 2.498503 -2.507276 -10.163589 4.678941 4.621103 -20.975994 -0.0 1e-06 -21.226252 2.451699 -3.593994 0.0 -6e-06 -0.0 -1.36268 2.240796 -0.746323 -21.334888 0.58491 3.008318 -13.821193 -1e-06 1e-06 -23.887127 -0.249074 -0.839485 -59.232502 2.581483 -1.28632 -0.294025 1.679686 0.833255 -14.218191 0.093216 1.300578 -34.211994 -0.28756 0.967166 -20.033173 0.964536 1.212838 -0.0 0.0 0.0 -3.440386 0.788233 0.501655 -15.928168 -3.167305 2.999702 -6.338816 -0.0 0.0 -18.123415 3.64818 -4.905661 -4e-06 0.0 -2e-06 -11.943379 18.756151 4.72578 40.898426 59.880543 -30.018955 1.853335 59.784435 1.36137 -10.844666 -15.820046 -44.024357 2.24354 -5.255033 -3.180155 14.282875 -0.826595 6.952495 0.0 -12.690593 -1e-06 16.370661 -17.529047 2.824134 1.665665 -1.95592 -2.878296 4.727794 -4.170584 4.993918 11.020509 0.0 -0.0 12.109029 -3.735715 -2.866777 -0.0 0.0 -0.0 1.291984 -1.928548 -1.498088 14.800112 0.567466 3.865604 14.242552 -1.341739 -6.660646 19.631929 0.14392 -0.648243 49.263374 -0.74128 -5.496869 0.353029 -1.511149 -0.03194 20.222765 3.684304 2.316628 18.787243 0.0 -0.0 10.751607 -0.47987 1.397902 0.0 0.0 0.0 3.273804 0.305947 -0.58011 21.486788 11.830361 2.266131 8.162914 -0.0 -0.0 18.399046 -3.798986 -4.940566 3e-06 0.0 -1e-06 8.311438 18.298893 17.930346 -0.066522 -0.477668 37.728729 -6.653862 6.639665 -25.105734 1.691883 -1.94202 0.20207 0.0 -0.0 2e-06 -23.812403 -4.543057 -10.254789 0.202128 0.614348 13.393754 7.893485 -18.516754 33.139172 -1.49416 1.076722 -0.164646 0.0 -0.0 -1e-06 
0.0 0.0 0.0 0.0 -0.0 0.0 -0.57165 91.617981 832.9552 4.338886 11.587121 -19.298759 -2.607927 0.320372 5.420496 -0.865882 -0.95048 -2.57017 -2.56104 -2.166598 17.134037 2.927499 0.734769 14.857523 -0.222333 -0.388939 -3.778852 1.181365 -1.387821 -8.885956 7.7e-05 -2.2e-05 6e-06 0.00302 0.020621 0.029232 0.691344 -3.659725 -10.402966 -0.684695 3.706029 -10.41433 30.048531 -18.433203 0.785801 -58.33815 -74.973053 -15.030634 0.212777 -46.176975 0.839146 27.107426 4.416484 -31.629835 -5.882102 9.861279 0.70259 -10.936858 -0.360574 7.156195 0.0 8.774814 0.0 -15.268758 18.289719 6.497307 -1.844031 2.498503 -2.507276 -10.163589 4.678941 4.621103 -20.975994 -0.0 1e-06 -21.226252 2.451699 -3.593994 0.0 -6e-06 -0.0 -1.36268 2.240796 -0.746323 -21.334888 0.58491 3.008318 -13.821193 -1e-06 1e-06 -23.887127 -0.249074 -0.839485 -59.157589 2.673276 -1.312023 -0.294025 1.679686 0.833255 -14.218191 0.093216 1.300578 -34.211994 -0.28756 0.967166 -20.033173 0.964536 1.212838 -0.0 0.0 0.0 -3.440386 0.788233 0.501655 -15.928168 -3.167305 2.999702 -6.338816 -0.0 0.0 -18.123415 3.64818 -4.905661 -4e-06 0.0 -2e-06 -14.724915 19.422571 3.455936 38.822052 60.304184 -34.239464 2.041877 57.85656 1.547197 -10.794772 -17.027534 -47.513809 2.24354 -5.255033 -3.180155 14.282875 -0.826595 6.952495 0.0 -12.690593 -1e-06 16.454437 -17.708473 2.780336 1.665665 -1.95592 -2.878296 4.727794 -4.170584 4.993918 11.020509 0.0 -0.0 12.109029 -3.735715 -2.866777 -0.0 0.0 -0.0 1.291984 -1.928548 -1.498088 14.800112 0.567466 3.865604 14.242552 -1.341739 -6.660646 19.631929 0.14392 -0.648243 49.062737 -0.733834 -5.571556 0.353029 -1.511149 -0.03194 20.222765 3.684304 2.316628 18.787243 0.0 -0.0 10.751607 -0.47987 1.397902 0.0 0.0 0.0 3.273804 0.305947 -0.58011 21.486788 11.830361 2.266131 8.162914 -0.0 -0.0 18.399046 -3.798986 -4.940566 3e-06 0.0 -1e-06 7.734286 18.801615 16.404474 -0.095503 -0.484955 38.061844 -6.122494 6.774487 -25.231951 1.686562 -1.883565 0.593023 0.0 -0.0 2e-06 -23.928782 -6.161354 -13.794855 0.287618 0.841193 18.160461 6.980695 -17.099653 36.103142 -1.492723 1.103556 -0.887426 0.0 -0.0 -1e-06 
0.0 0.0 0.0 0.0 -0.0 0.0 -0.735921 91.931305 832.21637 4.306321 11.39787 -18.542604 -2.347479 0.208443 6.079735 -0.734346 -0.847242 -2.390154 -2.249461 -2.157595 17.107069 2.5045 0.979372 13.99426 -0.339253 -0.523579 -3.760027 1.051783 -1.541495 -9.462937 7.7e-05 -2.2e-05 6e-06 0.005545 0.035202 0.037524 0.674849 -3.640047 -10.351027 -0.663671 3.715272 -10.367884 30.270569 -18.110815 1.065727 -42.78672 -76.764641 -28.577686 0.11627 -43.665997 0.911092 26.422142 5.085312 -33.506859 -5.882102 9.861279 0.70259 -10.936858 -0.360574 7.156195 0.0 8.774814 0.0 -15.285897 18.367823 6.513752 -1.844031 2.498503 -2.507276 -10.163589 4.678941 4.621103 -20.975994 -0.0 1e-06 -21.226252 2.451699 -3.593994 0.0 -6e-06 -0.0 -1.36268 2.240796 -0.746323 -21.334888 0.58491 3.008318 -13.821193 -1e-06 1e-06 -23.887127 -0.249074 -0.839485 -59.087482 2.73819 -1.289268 -0.294025 1.679686 0.833255 -14.218191 0.093216 1.300578 -34.211994 -0.28756 0.967166 -20.033173 0.964536 1.212838 -0.0 0.0 0.0 -3.440386 0.788233 0.501655 -15.928168 -3.167305 2.999702 -6.338816 -0.0 0.0 -18.123415 3.64818 -4.905661 -4e-06 0.0 -2e-06 -17.784407 20.021229 1.860845 36.933159 60.811989 -38.424614 1.779106 55.576122 1.381048 -10.69599 -18.172468 -51.529198 2.24354 -5.255033 -3.180155 14.282875 -0.826595 6.952495 0.0 -12.690593 -1e-06 16.457039 -17.858343 2.702929 1.665665 -1.95592 -2.878296 4.727794 -4.170584 4.993918 11.020509 0.0 -0.0 12.109029 -3.735715 -2.866777 -0.0 0.0 -0.0 1.291984 -1.928548 -1.498088 14.800112 0.567466 3.865604 14.242552 -1.341739 -6.660646 19.631929 0.14392 -0.648243 48.768883 -0.651389 -5.653946 0.353029 -1.511149 -0.03194 20.222765 3.684304 2.316628 18.787243 0.0 -0.0 10.751607 -0.47987 1.397902 0.0 0.0 0.0 3.273804 0.305947 -0.58011 21.486788 11.830361 2.266131 8.162914 -0.0 -0.0 18.399046 -3.798986 -4.940566 3e-06 0.0 -1e-06 7.445761 19.248602 15.244943 -0.111575 -0.505299 37.537262 -5.737056 6.659522 -24.970341 1.674405 -1.836035 0.830791 0.0 -0.0 2e-06 -23.392868 -9.221287 -17.467749 0.380426 0.931931 22.932261 6.868821 -15.486228 37.178078 -1.487525 1.120237 -1.146421 0.0 -0.0 -1e-06 
0.0 0.0 0.0 0.0 -0.0 0.0 -0.880623 92.435196 831.790039 4.072418 11.198043 -17.46303 -2.030092 0.048888 6.786989 -0.572127 -0.792996 -2.230425 -1.802043 -2.272918 16.901907 2.207006 1.135875 12.967047 -0.483559 -0.538801 -3.738514 0.869695 -1.768681 -10.108052 7.7e-05 -2.2e-05 6e-06 0.008082 0.062384 0.047299 0.660589 -3.615507 -10.344443 -0.644893 3.744448 -10.366819 30.30792 -17.83847 1.514554 -24.199488 -77.395988 -45.535259 0.121445 -41.279739 0.83216 25.941019 5.467397 -35.365795 -5.882102 9.861279 0.70259 -10.936858 -0.360574 7.156195 0.0 8.774814 0.0 -15.24238 18.299709 6.530826 -1.844031 2.498503 -2.507276 -10.163589 4.678941 4.621103 -20.975994 -0.0 1e-06 -21.226252 2.451699 -3.593994 0.0 -6e-06 -0.0 -1.36268 2.240796 -0.746323 -21.334888 0.58491 3.008318 -13.821193 -1e-06 1e-06 -23.887127 -0.249074 -0.839485 -59.073345 2.744797 -1.298924 -0.294025 1.679686 0.833255 -14.218191 0.093216 1.300578 -34.211994 -0.28756 0.967166 -20.033173 0.964536 1.212838 -0.0 0.0 0.0 -3.440386 0.788233 0.501655 -15.928168 -3.167305 2.999702 -6.338816 -0.0 0.0 -18.123415 3.64818 -4.905661 -4e-06 0.0 -2e-06 -21.022541 20.481678 -0.022572 35.279156 61.334545 -42.394573 1.178107 53.087269 0.984934 -10.464888 -18.862082 -55.604088 2.24354 -5.255033 -3.180155 14.282875 -0.826595 6.952495 0.0 -12.690593 -1e-06 16.438284 -17.907419 2.616259 1.665665 -1.95592 -2.878296 4.727794 -4.170584 4.993918 11.020509 0.0 -0.0 12.109029 -3.735715 -2.866777 -0.0 0.0 -0.0 1.291984 -1.928548 -1.498088 14.800112 0.567466 3.865604 14.242552 -1.341739 -6.660646 19.631929 0.14392 -0.648243 48.661777 -0.517716 -5.762869 0.353029 -1.511149 -0.03194 20.222765 3.684304 2.316628 18.787243 0.0 -0.0 10.751607 -0.47987 1.397902 0.0 0.0 0.0 3.273804 0.305947 -0.58011 21.486788 11.830361 2.266131 8.162914 -0.0 -0.0 18.399046 -3.798986 -4.940566 3e-06 0.0 -1e-06 7.247686 19.580021 14.142035 -0.09591 -0.528252 36.421032 -5.574327 6.495527 -24.362993 1.662201 -1.804231 0.81799 0.0 -0.0 2e-06 -21.838631 -13.263131 -20.645853 0.430734 0.805068 24.740784 8.282623 -13.902 35.959637 -1.477573 1.135783 -1.216193 0.0 -0.0 -1e-06 
